<svg xmlns="http://www.w3.org/2000/svg" width="980" height="276" viewBox="0 0 980 276" font-family="system-ui,-apple-system,Segoe UI,Roboto,sans-serif"><rect width="980" height="276" fill="#1b1b29"/><text x="20" y="26" font-size="15" font-weight="700" fill="#e7e7ee">Status — Demo</text><rect x="810.0" y="13.0" width="150.0" height="18.0" rx="9.0" fill="#3bd671"/><text x="885.0" y="25.1" font-size="9" font-weight="700" fill="#06210f" text-anchor="middle">All Systems Operational</text><text x="20" y="52.0" font-size="10" font-weight="700" letter-spacing="0.6" fill="#9a9aa6">NETWORK</text><rect x="20.0" y="62.0" width="176.0" height="74" rx="8" fill="#2b2b3b" stroke="#383b52"/><rect x="150.0" y="70.0" width="38.0" height="15.0" rx="7.5" fill="#3bd671"/><text x="169.0" y="80.3" font-size="8" font-weight="700" fill="#06210f" text-anchor="middle">100%</text><text x="30.0" y="82.0" font-size="11" font-weight="600" fill="#e7e7ee">Gateway</text><rect x="30.0" y="90.0" width="56.0" height="14.0" rx="7.0" fill="#3bd671"/><text x="58.0" y="99.8" font-size="8" font-weight="700" fill="#06210f" text-anchor="middle">Cert 56d</text><rect x="30.0" y="114.0" width="3" height="12" rx="1" fill="#3bd671"/><rect x="35.0" y="114.0" width="3" height="12" rx="1" fill="#3bd671"/><rect x="40.0" y="114.0" width="3" height="12" rx="1" fill="#3bd671"/><rect x="45.0" y="114.0" width="3" height="12" rx="1" fill="#3bd671"/><rect x="50.0" y="114.0" width="3" height="12" rx="1" fill="#3bd671"/><rect x="55.0" y="114.0" width="3" height="12" rx="1" fill="#3bd671"/><rect x="60.0" y="114.0" width="3" height="12" rx="1" fill="#3bd671"/><rect x="65.0" y="114.0" width="3" height="12" rx="1" fill="#3bd671"/><rect x="70.0" y="114.0" width="3" height="12" rx="1" fill="#3bd671"/><rect x="75.0" y="114.0" width="3" height="12" rx="1" fill="#3bd671"/><rect x="80.0" y="114.0" width="3" height="12" rx="1" fill="#3bd671"/><rect x="85.0" y="114.0" width="3" height="12" rx="1" fill="#3bd671"/><rect x="90.0" y="114.0" width="3" height="12" rx="1" fill="#3bd671"/><rect x="95.0" y="114.0" width="3" height="12" rx="1" fill="#3bd671"/><rect x="100.0" y="114.0" width="3" height="12" rx="1" fill="#3bd671"/><rect x="105.0" y="114.0" width="3" height="12" rx="1" fill="#3bd671"/><text x="30.0" y="133.0" font-size="7" fill="#9a9aa6">20m</text><text x="186.0" y="133.0" font-size="7" fill="#9a9aa6" text-anchor="end">now</text><rect x="211.0" y="62.0" width="176.0" height="74" rx="8" fill="#2b2b3b" stroke="#383b52"/><rect x="341.0" y="70.0" width="38.0" height="15.0" rx="7.5" fill="#3bd671"/><text x="360.0" y="80.3" font-size="8" font-weight="700" fill="#06210f" text-anchor="middle">100%</text><text x="221.0" y="82.0" font-size="11" font-weight="600" fill="#e7e7ee">DNS Primary</text><rect x="221.0" y="114.0" width="3" height="12" rx="1" fill="#3bd671"/><rect x="226.0" y="114.0" width="3" height="12" rx="1" fill="#3bd671"/><rect x="231.0" y="114.0" width="3" height="12" rx="1" fill="#3bd671"/><rect x="236.0" y="114.0" width="3" height="12" rx="1" fill="#3bd671"/><rect x="241.0" y="114.0" width="3" height="12" rx="1" fill="#3bd671"/><rect x="246.0" y="114.0" width="3" height="12" rx="1" fill="#3bd671"/><rect x="251.0" y="114.0" width="3" height="12" rx="1" fill="#3bd671"/><rect x="256.0" y="114.0" width="3" height="12" rx="1" fill="#3bd671"/><rect x="261.0" y="114.0" width="3" height="12" rx="1" fill="#3bd671"/><rect x="266.0" y="114.0" width="3" height="12" rx="1" fill="#3bd671"/><rect x="271.0" y="114.0" width="3" height="12" rx="1" fill="#3bd671"/><rect x="276.0" y="114.0" width="3" height="12" rx="1" fill="#3bd671"/><rect x="281.0" y="114.0" width="3" height="12" rx="1" fill="#3bd671"/><rect x="286.0" y="114.0" width="3" height="12" rx="1" fill="#3bd671"/><rect x="291.0" y="114.0" width="3" height="12" rx="1" fill="#3bd671"/><rect x="296.0" y="114.0" width="3" height="12" rx="1" fill="#3bd671"/><text x="221.0" y="133.0" font-size="7" fill="#9a9aa6">20m</text><text x="377.0" y="133.0" font-size="7" fill="#9a9aa6" text-anchor="end">now</text><rect x="402.0" y="62.0" width="176.0" height="74" rx="8" fill="#2b2b3b" stroke="#383b52"/><rect x="532.0" y="70.0" width="38.0" height="15.0" rx="7.5" fill="#3bd671"/><text x="551.0" y="80.3" font-size="8" font-weight="700" fill="#06210f" text-anchor="middle">100%</text><text x="412.0" y="82.0" font-size="11" font-weight="600" fill="#e7e7ee">DNS Secondary</text><rect x="412.0" y="114.0" width="3" height="12" rx="1" fill="#3bd671"/><rect x="417.0" y="114.0" width="3" height="12" rx="1" fill="#3bd671"/><rect x="422.0" y="114.0" width="3" height="12" rx="1" fill="#3bd671"/><rect x="427.0" y="114.0" width="3" height="12" rx="1" fill="#3bd671"/><rect x="432.0" y="114.0" width="3" height="12" rx="1" fill="#3bd671"/><rect x="437.0" y="114.0" width="3" height="12" rx="1" fill="#3bd671"/><rect x="442.0" y="114.0" width="3" height="12" rx="1" fill="#3bd671"/><rect x="447.0" y="114.0" width="3" height="12" rx="1" fill="#3bd671"/><rect x="452.0" y="114.0" width="3" height="12" rx="1" fill="#3bd671"/><rect x="457.0" y="114.0" width="3" height="12" rx="1" fill="#3bd671"/><rect x="462.0" y="114.0" width="3" height="12" rx="1" fill="#3bd671"/><rect x="467.0" y="114.0" width="3" height="12" rx="1" fill="#3bd671"/><rect x="472.0" y="114.0" width="3" height="12" rx="1" fill="#3bd671"/><rect x="477.0" y="114.0" width="3" height="12" rx="1" fill="#3bd671"/><rect x="482.0" y="114.0" width="3" height="12" rx="1" fill="#3bd671"/><rect x="487.0" y="114.0" width="3" height="12" rx="1" fill="#3bd671"/><text x="412.0" y="133.0" font-size="7" fill="#9a9aa6">20m</text><text x="568.0" y="133.0" font-size="7" fill="#9a9aa6" text-anchor="end">now</text><rect x="593.0" y="62.0" width="176.0" height="74" rx="8" fill="#2b2b3b" stroke="#383b52"/><rect x="723.0" y="70.0" width="38.0" height="15.0" rx="7.5" fill="#3bd671"/><text x="742.0" y="80.3" font-size="8" font-weight="700" fill="#06210f" text-anchor="middle">100%</text><text x="603.0" y="82.0" font-size="11" font-weight="600" fill="#e7e7ee">VPN Endpoint</text><rect x="603.0" y="90.0" width="56.0" height="14.0" rx="7.0" fill="#3bd671"/><text x="631.0" y="99.8" font-size="8" font-weight="700" fill="#06210f" text-anchor="middle">Cert 206d</text><rect x="603.0" y="114.0" width="3" height="12" rx="1" fill="#3bd671"/><rect x="608.0" y="114.0" width="3" height="12" rx="1" fill="#3bd671"/><rect x="613.0" y="114.0" width="3" height="12" rx="1" fill="#3bd671"/><rect x="618.0" y="114.0" width="3" height="12" rx="1" fill="#3bd671"/><rect x="623.0" y="114.0" width="3" height="12" rx="1" fill="#3bd671"/><rect x="628.0" y="114.0" width="3" height="12" rx="1" fill="#3bd671"/><rect x="633.0" y="114.0" width="3" height="12" rx="1" fill="#3bd671"/><rect x="638.0" y="114.0" width="3" height="12" rx="1" fill="#3bd671"/><rect x="643.0" y="114.0" width="3" height="12" rx="1" fill="#3bd671"/><rect x="648.0" y="114.0" width="3" height="12" rx="1" fill="#3bd671"/><rect x="653.0" y="114.0" width="3" height="12" rx="1" fill="#3bd671"/><rect x="658.0" y="114.0" width="3" height="12" rx="1" fill="#3bd671"/><rect x="663.0" y="114.0" width="3" height="12" rx="1" fill="#3bd671"/><rect x="668.0" y="114.0" width="3" height="12" rx="1" fill="#3bd671"/><rect x="673.0" y="114.0" width="3" height="12" rx="1" fill="#3bd671"/><rect x="678.0" y="114.0" width="3" height="12" rx="1" fill="#3bd671"/><text x="603.0" y="133.0" font-size="7" fill="#9a9aa6">20m</text><text x="759.0" y="133.0" font-size="7" fill="#9a9aa6" text-anchor="end">now</text><rect x="784.0" y="62.0" width="176.0" height="74" rx="8" fill="#2b2b3b" stroke="#383b52"/><rect x="914.0" y="70.0" width="38.0" height="15.0" rx="7.5" fill="#f5c451"/><text x="933.0" y="80.3" font-size="8" font-weight="700" fill="#2a1f00" text-anchor="middle">99%</text><text x="794.0" y="82.0" font-size="11" font-weight="600" fill="#e7e7ee">Mail Relay</text><rect x="794.0" y="114.0" width="3" height="12" rx="1" fill="#3bd671"/><rect x="799.0" y="114.0" width="3" height="12" rx="1" fill="#3bd671"/><rect x="804.0" y="114.0" width="3" height="12" rx="1" fill="#3bd671"/><rect x="809.0" y="114.0" width="3" height="12" rx="1" fill="#3bd671"/><rect x="814.0" y="114.0" width="3" height="12" rx="1" fill="#3bd671"/><rect x="819.0" y="114.0" width="3" height="12" rx="1" fill="#3bd671"/><rect x="824.0" y="114.0" width="3" height="12" rx="1" fill="#3bd671"/><rect x="829.0" y="114.0" width="3" height="12" rx="1" fill="#3bd671"/><rect x="834.0" y="114.0" width="3" height="12" rx="1" fill="#3bd671"/><rect x="839.0" y="114.0" width="3" height="12" rx="1" fill="#3bd671"/><rect x="844.0" y="114.0" width="3" height="12" rx="1" fill="#3bd671"/><rect x="849.0" y="114.0" width="3" height="12" rx="1" fill="#3bd671"/><rect x="854.0" y="114.0" width="3" height="12" rx="1" fill="#3bd671"/><rect x="859.0" y="114.0" width="3" height="12" rx="1" fill="#3bd671"/><rect x="864.0" y="114.0" width="3" height="12" rx="1" fill="#3bd671"/><rect x="869.0" y="114.0" width="3" height="12" rx="1" fill="#3bd671"/><text x="794.0" y="133.0" font-size="7" fill="#9a9aa6">20m</text><text x="950.0" y="133.0" font-size="7" fill="#9a9aa6" text-anchor="end">now</text><text x="20" y="164.0" font-size="10" font-weight="700" letter-spacing="0.6" fill="#9a9aa6">SERVERS</text><rect x="20.0" y="174.0" width="176.0" height="74" rx="8" fill="#2b2b3b" stroke="#383b52"/><rect x="150.0" y="182.0" width="38.0" height="15.0" rx="7.5" fill="#3bd671"/><text x="169.0" y="192.3" font-size="8" font-weight="700" fill="#06210f" text-anchor="middle">100%</text><text x="30.0" y="194.0" font-size="11" font-weight="600" fill="#e7e7ee">Web Frontend</text><rect x="30.0" y="226.0" width="3" height="12" rx="1" fill="#3bd671"/><rect x="35.0" y="226.0" width="3" height="12" rx="1" fill="#3bd671"/><rect x="40.0" y="226.0" width="3" height="12" rx="1" fill="#3bd671"/><rect x="45.0" y="226.0" width="3" height="12" rx="1" fill="#3bd671"/><rect x="50.0" y="226.0" width="3" height="12" rx="1" fill="#3bd671"/><rect x="55.0" y="226.0" width="3" height="12" rx="1" fill="#3bd671"/><rect x="60.0" y="226.0" width="3" height="12" rx="1" fill="#3bd671"/><rect x="65.0" y="226.0" width="3" height="12" rx="1" fill="#3bd671"/><rect x="70.0" y="226.0" width="3" height="12" rx="1" fill="#3bd671"/><rect x="75.0" y="226.0" width="3" height="12" rx="1" fill="#3bd671"/><rect x="80.0" y="226.0" width="3" height="12" rx="1" fill="#3bd671"/><rect x="85.0" y="226.0" width="3" height="12" rx="1" fill="#3bd671"/><rect x="90.0" y="226.0" width="3" height="12" rx="1" fill="#3bd671"/><rect x="95.0" y="226.0" width="3" height="12" rx="1" fill="#3bd671"/><rect x="100.0" y="226.0" width="3" height="12" rx="1" fill="#3bd671"/><rect x="105.0" y="226.0" width="3" height="12" rx="1" fill="#3bd671"/><text x="30.0" y="245.0" font-size="7" fill="#9a9aa6">20m</text><text x="186.0" y="245.0" font-size="7" fill="#9a9aa6" text-anchor="end">now</text><rect x="211.0" y="174.0" width="176.0" height="74" rx="8" fill="#2b2b3b" stroke="#383b52"/><rect x="341.0" y="182.0" width="38.0" height="15.0" rx="7.5" fill="#3bd671"/><text x="360.0" y="192.3" font-size="8" font-weight="700" fill="#06210f" text-anchor="middle">100%</text><text x="221.0" y="194.0" font-size="11" font-weight="600" fill="#e7e7ee">App Server</text><rect x="221.0" y="226.0" width="3" height="12" rx="1" fill="#3bd671"/><rect x="226.0" y="226.0" width="3" height="12" rx="1" fill="#3bd671"/><rect x="231.0" y="226.0" width="3" height="12" rx="1" fill="#3bd671"/><rect x="236.0" y="226.0" width="3" height="12" rx="1" fill="#3bd671"/><rect x="241.0" y="226.0" width="3" height="12" rx="1" fill="#3bd671"/><rect x="246.0" y="226.0" width="3" height="12" rx="1" fill="#3bd671"/><rect x="251.0" y="226.0" width="3" height="12" rx="1" fill="#3bd671"/><rect x="256.0" y="226.0" width="3" height="12" rx="1" fill="#3bd671"/><rect x="261.0" y="226.0" width="3" height="12" rx="1" fill="#3bd671"/><rect x="266.0" y="226.0" width="3" height="12" rx="1" fill="#3bd671"/><rect x="271.0" y="226.0" width="3" height="12" rx="1" fill="#3bd671"/><rect x="276.0" y="226.0" width="3" height="12" rx="1" fill="#3bd671"/><rect x="281.0" y="226.0" width="3" height="12" rx="1" fill="#3bd671"/><rect x="286.0" y="226.0" width="3" height="12" rx="1" fill="#3bd671"/><rect x="291.0" y="226.0" width="3" height="12" rx="1" fill="#3bd671"/><rect x="296.0" y="226.0" width="3" height="12" rx="1" fill="#3bd671"/><text x="221.0" y="245.0" font-size="7" fill="#9a9aa6">20m</text><text x="377.0" y="245.0" font-size="7" fill="#9a9aa6" text-anchor="end">now</text><rect x="402.0" y="174.0" width="176.0" height="74" rx="8" fill="#2b2b3b" stroke="#383b52"/><rect x="532.0" y="182.0" width="38.0" height="15.0" rx="7.5" fill="#3bd671"/><text x="551.0" y="192.3" font-size="8" font-weight="700" fill="#06210f" text-anchor="middle">100%</text><text x="412.0" y="194.0" font-size="11" font-weight="600" fill="#e7e7ee">Database</text><rect x="412.0" y="226.0" width="3" height="12" rx="1" fill="#3bd671"/><rect x="417.0" y="226.0" width="3" height="12" rx="1" fill="#3bd671"/><rect x="422.0" y="226.0" width="3" height="12" rx="1" fill="#3bd671"/><rect x="427.0" y="226.0" width="3" height="12" rx="1" fill="#3bd671"/><rect x="432.0" y="226.0" width="3" height="12" rx="1" fill="#3bd671"/><rect x="437.0" y="226.0" width="3" height="12" rx="1" fill="#3bd671"/><rect x="442.0" y="226.0" width="3" height="12" rx="1" fill="#3bd671"/><rect x="447.0" y="226.0" width="3" height="12" rx="1" fill="#3bd671"/><rect x="452.0" y="226.0" width="3" height="12" rx="1" fill="#3bd671"/><rect x="457.0" y="226.0" width="3" height="12" rx="1" fill="#3bd671"/><rect x="462.0" y="226.0" width="3" height="12" rx="1" fill="#3bd671"/><rect x="467.0" y="226.0" width="3" height="12" rx="1" fill="#3bd671"/><rect x="472.0" y="226.0" width="3" height="12" rx="1" fill="#3bd671"/><rect x="477.0" y="226.0" width="3" height="12" rx="1" fill="#3bd671"/><rect x="482.0" y="226.0" width="3" height="12" rx="1" fill="#3bd671"/><rect x="487.0" y="226.0" width="3" height="12" rx="1" fill="#3bd671"/><text x="412.0" y="245.0" font-size="7" fill="#9a9aa6">20m</text><text x="568.0" y="245.0" font-size="7" fill="#9a9aa6" text-anchor="end">now</text><rect x="593.0" y="174.0" width="176.0" height="74" rx="8" fill="#2b2b3b" stroke="#383b52"/><rect x="723.0" y="182.0" width="38.0" height="15.0" rx="7.5" fill="#f25c5c"/><text x="742.0" y="192.3" font-size="8" font-weight="700" fill="#2a0606" text-anchor="middle">0%</text><text x="603.0" y="194.0" font-size="11" font-weight="600" fill="#e7e7ee">File Storage</text><rect x="603.0" y="226.0" width="3" height="12" rx="1" fill="#f25c5c"/><rect x="608.0" y="226.0" width="3" height="12" rx="1" fill="#f25c5c"/><rect x="613.0" y="226.0" width="3" height="12" rx="1" fill="#f25c5c"/><rect x="618.0" y="226.0" width="3" height="12" rx="1" fill="#f25c5c"/><rect x="623.0" y="226.0" width="3" height="12" rx="1" fill="#f25c5c"/><rect x="628.0" y="226.0" width="3" height="12" rx="1" fill="#f25c5c"/><rect x="633.0" y="226.0" width="3" height="12" rx="1" fill="#f25c5c"/><rect x="638.0" y="226.0" width="3" height="12" rx="1" fill="#f25c5c"/><rect x="643.0" y="226.0" width="3" height="12" rx="1" fill="#f25c5c"/><rect x="648.0" y="226.0" width="3" height="12" rx="1" fill="#f25c5c"/><rect x="653.0" y="226.0" width="3" height="12" rx="1" fill="#f25c5c"/><rect x="658.0" y="226.0" width="3" height="12" rx="1" fill="#f25c5c"/><rect x="663.0" y="226.0" width="3" height="12" rx="1" fill="#f25c5c"/><rect x="668.0" y="226.0" width="3" height="12" rx="1" fill="#f25c5c"/><rect x="673.0" y="226.0" width="3" height="12" rx="1" fill="#f25c5c"/><rect x="678.0" y="226.0" width="3" height="12" rx="1" fill="#f25c5c"/><text x="603.0" y="245.0" font-size="7" fill="#9a9aa6">20m</text><text x="759.0" y="245.0" font-size="7" fill="#9a9aa6" text-anchor="end">now</text><rect x="784.0" y="174.0" width="176.0" height="74" rx="8" fill="#2b2b3b" stroke="#383b52"/><rect x="914.0" y="182.0" width="38.0" height="15.0" rx="7.5" fill="#3bd671"/><text x="933.0" y="192.3" font-size="8" font-weight="700" fill="#06210f" text-anchor="middle">100%</text><text x="794.0" y="194.0" font-size="11" font-weight="600" fill="#e7e7ee">Cache</text><rect x="794.0" y="226.0" width="3" height="12" rx="1" fill="#3bd671"/><rect x="799.0" y="226.0" width="3" height="12" rx="1" fill="#3bd671"/><rect x="804.0" y="226.0" width="3" height="12" rx="1" fill="#3bd671"/><rect x="809.0" y="226.0" width="3" height="12" rx="1" fill="#3bd671"/><rect x="814.0" y="226.0" width="3" height="12" rx="1" fill="#3bd671"/><rect x="819.0" y="226.0" width="3" height="12" rx="1" fill="#3bd671"/><rect x="824.0" y="226.0" width="3" height="12" rx="1" fill="#3bd671"/><rect x="829.0" y="226.0" width="3" height="12" rx="1" fill="#3bd671"/><rect x="834.0" y="226.0" width="3" height="12" rx="1" fill="#3bd671"/><rect x="839.0" y="226.0" width="3" height="12" rx="1" fill="#3bd671"/><rect x="844.0" y="226.0" width="3" height="12" rx="1" fill="#3bd671"/><rect x="849.0" y="226.0" width="3" height="12" rx="1" fill="#3bd671"/><rect x="854.0" y="226.0" width="3" height="12" rx="1" fill="#3bd671"/><rect x="859.0" y="226.0" width="3" height="12" rx="1" fill="#3bd671"/><rect x="864.0" y="226.0" width="3" height="12" rx="1" fill="#3bd671"/><rect x="869.0" y="226.0" width="3" height="12" rx="1" fill="#3bd671"/><text x="794.0" y="245.0" font-size="7" fill="#9a9aa6">20m</text><text x="950.0" y="245.0" font-size="7" fill="#9a9aa6" text-anchor="end">now</text></svg>